FFmpeg version SVN-r25716, Copyright (c) 2000-2010 the FFmpeg developers  built on Nov 10 2010 12:23:18 with gcc 4.1.2 20080704 (Red Hat 4.1.2-48)  configuration: --enable-libmp3lame --enable-shared --disable-mmx --arch=x86_64  libavutil     50.33. 0 / 50.33. 0  libavcore      0.12. 1 /  0.12. 1  libavcodec    52.94. 4 / 52.94. 4  libavformat   52.84. 0 / 52.84. 0  libavdevice   52. 2. 2 / 52. 2. 2  libavfilter    1.59. 0 /  1.59. 0  libswscale     0.12. 0 /  0.12. 0Seems stream 0 codec frame rate differs from container frame rate: 1200.00 (1200/1) -> 15.00 (15/1)Input #0, mov,mp4,m4a,3gp,3g2,mj2, from '/RAID10/data/converted_video_files/42156.mov':  Metadata:    major_brand     : qt      minor_version   : 537199360    compatible_brands: qt    Duration: 00:00:13.73, start: 0.000000, bitrate: 1792 kb/s    Stream #0.0(eng): Video: h264, yuv420p, 694x520, 1790 kb/s, 15 fps, 15 tbr, 600 tbn, 1200 tbc[buffer @ 0xe7feec0] w:694 h:520 pixfmt:yuv420pOutput #0, flv, to '/RAID10/data/converted_video_files/42156.flv':  Metadata:    encoder         : Lavf52.84.0    Stream #0.0(eng): Video: flv, yuv420p, 694x520, q=2-31, 600 kb/s, 1k tbn, 24 tbcStream mapping:  Stream #0.0 -> #0.0Press [q] to stop encodingframe=   36 fps=  0 q=9.0 size=     250kB time=2.38 bitrate= 863.9kbits/s    frame=   73 fps= 70 q=7.2 size=     414kB time=4.83 bitrate= 702.1kbits/s    frame=  111 fps= 72 q=11.5 size=     574kB time=7.38 bitrate= 637.8kbits/s    frame=  147 fps= 72 q=10.0 size=     731kB time=9.75 bitrate= 614.2kbits/s    frame=  184 fps= 72 q=11.3 size=     894kB time=12.25 bitrate= 597.6kbits/s    frame=  206 fps= 72 q=10.3 Lsize=    1000kB time=13.71 bitrate= 597.5kbits/s    video:996kB audio:0kB global headers:0kB muxing overhead 0.343641%